<?xml version="1.0" encoding="UTF-8" standalone="no"?>
<!DOCTYPE svg PUBLIC "-//W3C//DTD SVG 1.1//EN" "http://www.w3.org/Graphics/SVG/1.1/DTD/svg11.dtd">
<svg width="100%" height="100%" viewBox="0 0 800 300" version="1.1" xmlns="http://www.w3.org/2000/svg" xmlns:xlink="http://www.w3.org/1999/xlink" xml:space="preserve" xmlns:serif="http://www.serif.com/" style="fill-rule:evenodd;clip-rule:evenodd;stroke-linejoin:round;stroke-miterlimit:2;">
    <g transform="matrix(1,0,0,1,-67.3216,-34.9352)">
        <g id="Layer1">
            <g>
                <path d="M116.412,199.215C116.412,192.495 115.548,187.735 113.822,184.935C112.095,182.135 109.132,180.735 104.932,180.735C103.625,180.735 102.272,180.805 100.872,180.945C99.472,181.085 98.118,181.249 96.812,181.435L96.812,238.275L75.952,238.275L75.952,167.155C77.725,166.689 79.802,166.199 82.182,165.685C84.562,165.172 87.082,164.705 89.742,164.285C92.402,163.865 95.132,163.539 97.932,163.305C100.732,163.072 103.485,162.955 106.192,162.955C111.512,162.955 115.828,163.632 119.142,164.985C122.455,166.339 125.185,167.949 127.332,169.815C130.318,167.669 133.748,165.989 137.622,164.775C141.495,163.562 145.065,162.955 148.332,162.955C154.212,162.955 159.042,163.772 162.822,165.405C166.602,167.039 169.612,169.349 171.852,172.335C174.092,175.322 175.632,178.869 176.472,182.975C177.312,187.082 177.732,191.655 177.732,196.695L177.732,238.275L156.872,238.275L156.872,199.215C156.872,192.495 156.008,187.735 154.282,184.935C152.555,182.135 149.592,180.735 145.392,180.735C144.272,180.735 142.708,181.015 140.702,181.575C138.695,182.135 137.038,182.835 135.732,183.675C136.385,185.822 136.805,188.085 136.992,190.465C137.178,192.845 137.272,195.389 137.272,198.095L137.272,238.275L116.412,238.275L116.412,199.215Z" style="fill:rgb(131,131,131);fill-rule:nonzero;"/>
                <path d="M224.772,223.715C226.825,223.715 228.785,223.669 230.652,223.575C232.518,223.482 234.012,223.342 235.132,223.155L235.132,207.335C234.292,207.149 233.032,206.962 231.352,206.775C229.672,206.589 228.132,206.495 226.732,206.495C224.772,206.495 222.928,206.612 221.202,206.845C219.475,207.079 217.958,207.522 216.652,208.175C215.345,208.829 214.318,209.715 213.572,210.835C212.825,211.955 212.452,213.355 212.452,215.035C212.452,218.302 213.548,220.565 215.742,221.825C217.935,223.085 220.945,223.715 224.772,223.715ZM223.092,162.675C229.252,162.675 234.385,163.375 238.492,164.775C242.598,166.175 245.888,168.182 248.362,170.795C250.835,173.409 252.585,176.582 253.612,180.315C254.638,184.049 255.152,188.202 255.152,192.775L255.152,236.175C252.165,236.829 248.012,237.599 242.692,238.485C237.372,239.372 230.932,239.815 223.372,239.815C218.612,239.815 214.295,239.395 210.422,238.555C206.548,237.715 203.212,236.339 200.412,234.425C197.612,232.512 195.465,230.015 193.972,226.935C192.478,223.855 191.732,220.075 191.732,215.595C191.732,211.302 192.595,207.662 194.322,204.675C196.048,201.689 198.358,199.309 201.252,197.535C204.145,195.762 207.458,194.479 211.192,193.685C214.925,192.892 218.798,192.495 222.812,192.495C225.518,192.495 227.922,192.612 230.022,192.845C232.122,193.079 233.825,193.382 235.132,193.755L235.132,191.795C235.132,188.249 234.058,185.402 231.912,183.255C229.765,181.109 226.032,180.035 220.712,180.035C217.165,180.035 213.665,180.292 210.212,180.805C206.758,181.319 203.772,182.042 201.252,182.975L198.592,166.175C199.805,165.802 201.322,165.405 203.142,164.985C204.962,164.565 206.945,164.192 209.092,163.865C211.238,163.539 213.502,163.259 215.882,163.025C218.262,162.792 220.665,162.675 223.092,162.675Z" style="fill:rgb(131,131,131);fill-rule:nonzero;"/>
                <path d="M270.552,201.455C270.552,196.135 271.415,191.119 273.142,186.405C274.868,181.692 277.365,177.585 280.632,174.085C283.898,170.585 287.865,167.809 292.532,165.755C297.198,163.702 302.518,162.675 308.492,162.675C312.412,162.675 316.005,163.025 319.272,163.725C322.538,164.425 325.712,165.429 328.792,166.735L324.452,183.395C322.492,182.649 320.345,181.995 318.012,181.435C315.678,180.875 313.065,180.595 310.172,180.595C304.012,180.595 299.415,182.509 296.382,186.335C293.348,190.162 291.832,195.202 291.832,201.455C291.832,208.082 293.255,213.215 296.102,216.855C298.948,220.495 303.918,222.315 311.012,222.315C313.532,222.315 316.238,222.082 319.132,221.615C322.025,221.149 324.685,220.402 327.112,219.375L330.052,236.455C327.625,237.482 324.592,238.369 320.952,239.115C317.312,239.862 313.298,240.235 308.912,240.235C302.192,240.235 296.405,239.232 291.552,237.225C286.698,235.219 282.708,232.489 279.582,229.035C276.455,225.582 274.168,221.499 272.722,216.785C271.275,212.072 270.552,206.962 270.552,201.455Z" style="fill:rgb(131,131,131);fill-rule:nonzero;"/>
                <path d="M409.432,201.315C409.432,207.102 408.592,212.399 406.912,217.205C405.232,222.012 402.805,226.119 399.632,229.525C396.458,232.932 392.655,235.569 388.222,237.435C383.788,239.302 378.818,240.235 373.312,240.235C367.898,240.235 362.975,239.302 358.542,237.435C354.108,235.569 350.305,232.932 347.132,229.525C343.958,226.119 341.485,222.012 339.712,217.205C337.938,212.399 337.052,207.102 337.052,201.315C337.052,195.529 337.962,190.255 339.782,185.495C341.602,180.735 344.122,176.675 347.342,173.315C350.562,169.955 354.388,167.342 358.822,165.475C363.255,163.609 368.085,162.675 373.312,162.675C378.632,162.675 383.508,163.609 387.942,165.475C392.375,167.342 396.178,169.955 399.352,173.315C402.525,176.675 404.998,180.735 406.772,185.495C408.545,190.255 409.432,195.529 409.432,201.315ZM388.152,201.315C388.152,194.875 386.868,189.812 384.302,186.125C381.735,182.439 378.072,180.595 373.312,180.595C368.552,180.595 364.865,182.439 362.252,186.125C359.638,189.812 358.332,194.875 358.332,201.315C358.332,207.755 359.638,212.865 362.252,216.645C364.865,220.425 368.552,222.315 373.312,222.315C378.072,222.315 381.735,220.425 384.302,216.645C386.868,212.865 388.152,207.755 388.152,201.315Z" style="fill:rgb(131,131,131);fill-rule:nonzero;"/>
                <path d="M446.672,223.295C450.498,223.295 453.205,222.922 454.792,222.175C456.378,221.429 457.172,219.982 457.172,217.835C457.172,216.155 456.145,214.685 454.092,213.425C452.038,212.165 448.912,210.742 444.712,209.155C441.445,207.942 438.482,206.682 435.822,205.375C433.162,204.069 430.898,202.505 429.032,200.685C427.165,198.865 425.718,196.695 424.692,194.175C423.665,191.655 423.152,188.622 423.152,185.075C423.152,178.169 425.718,172.709 430.852,168.695C435.985,164.682 443.032,162.675 451.992,162.675C456.472,162.675 460.765,163.072 464.872,163.865C468.978,164.659 472.245,165.522 474.672,166.455L471.032,182.695C468.605,181.855 465.968,181.109 463.122,180.455C460.275,179.802 457.078,179.475 453.532,179.475C446.998,179.475 443.732,181.295 443.732,184.935C443.732,185.775 443.872,186.522 444.152,187.175C444.432,187.829 444.992,188.459 445.832,189.065C446.672,189.672 447.815,190.325 449.262,191.025C450.708,191.725 452.552,192.495 454.792,193.335C459.365,195.015 463.145,196.672 466.132,198.305C469.118,199.939 471.475,201.712 473.202,203.625C474.928,205.539 476.142,207.662 476.842,209.995C477.542,212.329 477.892,215.035 477.892,218.115C477.892,225.395 475.162,230.902 469.702,234.635C464.242,238.369 456.518,240.235 446.532,240.235C439.998,240.235 434.562,239.675 430.222,238.555C425.882,237.435 422.872,236.502 421.192,235.755L424.692,218.815C428.238,220.215 431.878,221.312 435.612,222.105C439.345,222.899 443.032,223.295 446.672,223.295Z" style="fill:rgb(131,131,131);fill-rule:nonzero;"/>
                <rect x="487.132" y="187.035" width="40.6" height="18.9" style="fill:rgb(131,131,131);fill-rule:nonzero;"/>
                <path d="M541.032,167.155C544.578,166.129 549.152,165.172 554.752,164.285C560.352,163.399 566.232,162.955 572.392,162.955C578.645,162.955 583.848,163.772 588.002,165.405C592.155,167.039 595.445,169.349 597.872,172.335C600.298,175.322 602.025,178.869 603.052,182.975C604.078,187.082 604.592,191.655 604.592,196.695L604.592,238.275L583.732,238.275L583.732,199.215C583.732,192.495 582.845,187.735 581.072,184.935C579.298,182.135 575.985,180.735 571.132,180.735C569.638,180.735 568.052,180.805 566.372,180.945C564.692,181.085 563.198,181.249 561.892,181.435L561.892,238.275L541.032,238.275L541.032,167.155Z" style="fill:rgb(131,131,131);fill-rule:nonzero;"/>
                <path d="M692.372,201.315C692.372,207.102 691.532,212.399 689.852,217.205C688.172,222.012 685.745,226.119 682.572,229.525C679.398,232.932 675.595,235.569 671.162,237.435C666.728,239.302 661.758,240.235 656.252,240.235C650.838,240.235 645.915,239.302 641.482,237.435C637.048,235.569 633.245,232.932 630.072,229.525C626.898,226.119 624.425,222.012 622.652,217.205C620.878,212.399 619.992,207.102 619.992,201.315C619.992,195.529 620.902,190.255 622.722,185.495C624.542,180.735 627.062,176.675 630.282,173.315C633.502,169.955 637.328,167.342 641.762,165.475C646.195,163.609 651.025,162.675 656.252,162.675C661.572,162.675 666.448,163.609 670.882,165.475C675.315,167.342 679.118,169.955 682.292,173.315C685.465,176.675 687.938,180.735 689.712,185.495C691.485,190.255 692.372,195.529 692.372,201.315ZM671.092,201.315C671.092,194.875 669.808,189.812 667.242,186.125C664.675,182.439 661.012,180.595 656.252,180.595C651.492,180.595 647.805,182.439 645.192,186.125C642.578,189.812 641.272,194.875 641.272,201.315C641.272,207.755 642.578,212.865 645.192,216.645C647.805,220.425 651.492,222.315 656.252,222.315C661.012,222.315 664.675,220.425 667.242,216.645C669.808,212.865 671.092,207.755 671.092,201.315Z" style="fill:rgb(131,131,131);fill-rule:nonzero;"/>
                <path d="M726.252,200.895C726.252,207.335 727.698,212.515 730.592,216.435C733.485,220.355 737.778,222.315 743.472,222.315C745.338,222.315 747.065,222.245 748.652,222.105C750.238,221.965 751.545,221.802 752.572,221.615L752.572,183.675C751.265,182.835 749.562,182.135 747.462,181.575C745.362,181.015 743.238,180.735 741.092,180.735C731.198,180.735 726.252,187.455 726.252,200.895ZM773.432,235.895C771.565,236.455 769.418,236.992 766.992,237.505C764.565,238.019 762.022,238.462 759.362,238.835C756.702,239.209 753.995,239.512 751.242,239.745C748.488,239.979 745.852,240.095 743.332,240.095C737.265,240.095 731.852,239.209 727.092,237.435C722.332,235.662 718.318,233.119 715.052,229.805C711.785,226.492 709.288,222.479 707.562,217.765C705.835,213.052 704.972,207.755 704.972,201.875C704.972,195.902 705.718,190.512 707.212,185.705C708.705,180.899 710.852,176.815 713.652,173.455C716.452,170.095 719.882,167.529 723.942,165.755C728.002,163.982 732.645,163.095 737.872,163.095C740.765,163.095 743.355,163.375 745.642,163.935C747.928,164.495 750.238,165.289 752.572,166.315L752.572,132.995L773.432,129.635L773.432,235.895Z" style="fill:rgb(131,131,131);fill-rule:nonzero;"/>
                <path d="M789.532,202.015C789.532,195.482 790.535,189.765 792.542,184.865C794.548,179.965 797.185,175.882 800.452,172.615C803.718,169.349 807.475,166.875 811.722,165.195C815.968,163.515 820.332,162.675 824.812,162.675C835.265,162.675 843.525,165.872 849.592,172.265C855.658,178.659 858.692,188.062 858.692,200.475C858.692,201.689 858.645,203.019 858.552,204.465C858.458,205.912 858.365,207.195 858.272,208.315L810.952,208.315C811.418,212.609 813.425,216.015 816.972,218.535C820.518,221.055 825.278,222.315 831.252,222.315C835.078,222.315 838.835,221.965 842.522,221.265C846.208,220.565 849.218,219.702 851.552,218.675L854.352,235.615C853.232,236.175 851.738,236.735 849.872,237.295C848.005,237.855 845.928,238.345 843.642,238.765C841.355,239.185 838.905,239.535 836.292,239.815C833.678,240.095 831.065,240.235 828.452,240.235C821.825,240.235 816.062,239.255 811.162,237.295C806.262,235.335 802.202,232.652 798.982,229.245C795.762,225.839 793.382,221.802 791.842,217.135C790.302,212.469 789.532,207.429 789.532,202.015ZM838.532,194.035C838.438,192.262 838.135,190.535 837.622,188.855C837.108,187.175 836.315,185.682 835.242,184.375C834.168,183.069 832.815,181.995 831.182,181.155C829.548,180.315 827.518,179.895 825.092,179.895C822.758,179.895 820.752,180.292 819.072,181.085C817.392,181.879 815.992,182.929 814.872,184.235C813.752,185.542 812.888,187.059 812.282,188.785C811.675,190.512 811.232,192.262 810.952,194.035L838.532,194.035Z" style="fill:rgb(131,131,131);fill-rule:nonzero;"/>
            </g>
        </g>
    </g>
</svg>
